<svg width="940" height="240" viewBox="0 0 940 240" fill="none" xmlns="http://www.w3.org/2000/svg">
  <defs>
    <linearGradient id="bg" x1="64" y1="28" x2="858" y2="220" gradientUnits="userSpaceOnUse">
      <stop stop-color="#0F1720"/>
      <stop offset="0.52" stop-color="#15263B"/>
      <stop offset="1" stop-color="#173B48"/>
    </linearGradient>
    <linearGradient id="accent" x1="0" y1="0" x2="1" y2="1">
      <stop stop-color="#5EEAD4"/>
      <stop offset="1" stop-color="#60A5FA"/>
    </linearGradient>
    <filter id="blur" x="-40" y="-40" width="1020" height="320" filterUnits="userSpaceOnUse" color-interpolation-filters="sRGB">
      <feGaussianBlur stdDeviation="24"/>
    </filter>
  </defs>

  <rect x="8" y="8" width="924" height="224" rx="24" fill="url(#bg)"/>

  <g opacity="0.45" filter="url(#blur)">
    <circle cx="196" cy="80" r="62" fill="#34D399"/>
    <circle cx="760" cy="186" r="72" fill="#60A5FA"/>
    <circle cx="628" cy="46" r="34" fill="#A78BFA"/>
  </g>

  <g opacity="0.9">
    <path d="M88 68L96 96L124 88L104 108L124 128L96 120L88 148L80 120L52 128L72 108L52 88L80 96L88 68Z" fill="url(#accent)"/>
    <circle cx="88" cy="108" r="33" stroke="url(#accent)" stroke-width="2"/>
  </g>

  <text x="152" y="98" fill="white" font-family="Segoe UI, Arial, sans-serif" font-size="36" font-weight="700">
    ModYandexClient
  </text>
  <text x="152" y="138" fill="#C7D2FE" font-family="Segoe UI, Arial, sans-serif" font-size="20" font-weight="500">
    Обновления продолжаются в новом репозитории
  </text>

  <g>
    <rect x="152" y="162" width="202" height="36" rx="18" fill="#162B3D"/>
    <text x="178" y="185" fill="#E2E8F0" font-family="Segoe UI, Arial, sans-serif" font-size="16" font-weight="600">
      Регулярные обновления
    </text>
  </g>

  <g>
    <rect x="370" y="162" width="190" height="36" rx="18" fill="#183440"/>
    <text x="397" y="185" fill="#E2E8F0" font-family="Segoe UI, Arial, sans-serif" font-size="16" font-weight="600">
      Launcher опционален
    </text>
  </g>

  <g opacity="0.9">
    <rect x="714" y="54" width="138" height="138" rx="28" fill="#0E1623" stroke="#2B465B" stroke-width="2"/>
    <path d="M752 96H814V108H764V122H804V134H764V150H814V162H752V96Z" fill="white"/>
    <path d="M668 122H714" stroke="white" stroke-width="8" stroke-linecap="round"/>
    <path d="M700 104L718 122L700 140" stroke="white" stroke-width="8" stroke-linecap="round" stroke-linejoin="round"/>
  </g>
</svg>
